<svg version="1.1" viewBox="0.000000 0.000000 96.000000 96.000000" xmlns="http://www.w3.org/2000/svg" xmlns:xlink="http://www.w3.org/1999/xlink" id="Icons_EarthGlobeAmericas" overflow="hidden"><g><path d=" M 48.000000 10.000000 C 27.000000 10.000000 10.000000 27.000000 10.000000 48.000000 C 10.000000 69.000000 27.000000 86.000000 48.000000 86.000000 C 69.000000 86.000000 86.000000 69.000000 86.000000 48.000000 C 86.000000 27.000000 69.000000 10.000000 48.000000 10.000000 Z M 14.000000 48.000000 C 14.000000 39.099998 17.400000 31.100000 23.000000 25.000000 C 23.900000 25.500000 24.799999 26.299999 25.000000 27.000000 L 25.000000 33.299999 C 25.000000 33.700001 25.100000 34.200001 25.400000 34.500000 L 32.000000 43.000000 L 32.500000 42.500000 C 32.799999 42.200001 32.900002 41.700001 32.700001 41.299999 L 31.500000 39.299999 C 31.000000 38.500000 31.799999 37.500000 32.700001 37.799999 C 33.000000 37.900002 33.200001 38.099998 33.299999 38.299999 L 36.599998 44.799999 C 37.000000 45.500000 37.599998 46.099998 38.299999 46.299999 L 42.700001 47.799999 C 43.000000 47.900002 43.200001 48.099998 43.299999 48.299999 L 43.599998 48.799999 C 43.900002 49.500000 44.599998 49.900002 45.400002 49.900002 L 46.599998 49.900002 C 46.900002 49.900002 47.200001 50.099998 47.400002 50.299999 L 48.700001 52.200001 C 49.000000 52.599998 49.400002 52.900002 49.900002 53.000000 L 52.000000 53.500000 C 52.599998 53.599998 52.900002 54.299999 52.700001 54.799999 C 52.700001 54.799999 51.099998 56.400002 51.099998 58.700001 C 51.099998 65.300003 57.099998 67.199997 57.099998 68.699997 C 57.099998 72.800003 56.500000 78.500000 56.200001 80.699997 C 53.599998 81.300003 50.900002 81.699997 48.099998 81.699997 C 29.299999 82.000000 14.000000 66.699997 14.000000 48.000000 Z M 60.799999 79.500000 C 63.000000 77.599998 66.699997 74.400002 68.000000 73.000000 C 69.699997 71.099998 70.000000 68.000000 70.000000 68.000000 C 70.000000 68.000000 77.000000 66.099998 77.000000 61.000000 C 77.000000 57.500000 70.000000 56.000000 70.000000 56.000000 C 68.800003 52.099998 62.900002 50.000000 58.000000 50.000000 C 56.900002 50.000000 53.000000 52.000000 53.000000 52.000000 L 51.000000 51.000000 L 51.000000 48.000000 C 51.000000 47.400002 50.599998 47.000000 50.000000 47.000000 L 48.000000 47.000000 L 48.000000 44.000000 C 48.000000 43.400002 47.599998 43.000000 47.000000 43.000000 L 46.000000 43.000000 L 44.900002 43.700001 C 43.900002 44.400002 42.500000 44.000000 42.000000 42.900002 C 42.000000 42.900002 41.000000 41.500000 41.000000 40.900002 C 41.000000 36.599998 46.000000 36.900002 46.000000 36.900002 L 48.200001 36.900002 C 48.700001 36.900002 49.099998 37.200001 49.200001 37.700001 L 49.799999 40.200001 C 49.900002 40.599998 50.299999 41.000000 50.799999 41.000000 L 51.200001 41.000000 C 51.700001 41.000000 52.099998 40.700001 52.200001 40.200001 L 52.900002 36.500000 C 53.000000 36.200001 53.099998 35.900002 53.299999 35.599998 L 56.099998 32.099998 C 56.700001 31.400000 57.500000 31.000000 58.400002 31.000000 L 61.000000 31.000000 C 61.599998 31.000000 62.000000 30.600000 62.000000 30.000000 L 62.000000 29.000000 L 61.700001 28.700001 C 61.099998 28.100000 61.500000 27.000000 62.400002 27.000000 L 63.000000 27.000000 C 63.599998 27.000000 64.000000 27.400000 64.000000 28.000000 C 64.000000 28.600000 64.400002 29.000000 65.000000 29.000000 L 66.000000 29.000000 L 66.599998 26.400000 C 66.800003 25.500000 66.400002 24.700001 65.699997 24.200001 L 57.200001 19.100000 C 57.099998 19.000000 56.900002 19.000000 56.700001 19.000000 L 55.000000 19.000000 C 53.900002 19.000000 53.000000 19.900000 53.000000 21.000000 L 53.000000 22.000000 C 53.000000 22.600000 52.599998 23.000000 52.000000 23.000000 L 51.000000 23.000000 L 50.000000 22.000000 L 47.000000 22.000000 C 46.400002 22.000000 46.000000 21.600000 46.000000 21.000000 L 46.000000 18.500000 C 46.000000 18.200001 46.099998 17.900000 46.400002 17.700001 L 52.799999 15.000000 L 53.799999 16.700001 C 54.000000 16.900000 54.200001 17.000000 54.500000 17.000000 L 57.000000 17.000000 C 57.599998 17.000000 58.000000 16.600000 58.000000 16.000000 L 58.000000 15.500000 C 71.900002 19.799999 82.000000 32.700001 82.000000 48.000000 C 82.000000 62.200001 73.199997 74.400002 60.799999 79.500000 Z"/><path d=" M 60.299999 43.799999 L 55.500000 42.200001 C 55.099998 42.099998 54.799999 42.099998 54.400002 42.200001 L 51.000000 43.000000 C 50.700001 43.200001 50.599998 43.599998 51.000000 44.000000 L 55.599998 44.000000 C 55.900002 44.000000 56.099998 44.000000 56.299999 44.099998 L 59.799999 45.500000 C 60.400002 45.700001 61.000000 45.299999 61.000000 44.700001 C 61.000000 44.299999 60.700001 43.900002 60.299999 43.799999 Z"/></g></svg>